<svg width="424" height="560" viewBox="0 0 424 560" fill="none" xmlns="http://www.w3.org/2000/svg">
<rect width="424" height="560" fill="#4C4B4B"/>
<path fill-rule="evenodd" clip-rule="evenodd" d="M212 188.333C161.375 188.333 120.333 229.375 120.333 280C120.333 330.625 161.375 371.667 212 371.667C262.625 371.667 303.666 330.625 303.666 280C303.666 229.375 262.625 188.333 212 188.333ZM220.333 313.333C220.333 315.543 219.455 317.663 217.892 319.226C216.329 320.789 214.21 321.667 212 321.667C209.79 321.667 207.67 320.789 206.107 319.226C204.544 317.663 203.666 315.543 203.666 313.333V288.333H178.666C176.456 288.333 174.337 287.455 172.774 285.893C171.211 284.33 170.333 282.21 170.333 280C170.333 277.79 171.211 275.67 172.774 274.107C174.337 272.545 176.456 271.667 178.666 271.667H203.666V246.667C203.666 244.457 204.544 242.337 206.107 240.774C207.67 239.211 209.79 238.333 212 238.333C214.21 238.333 216.329 239.211 217.892 240.774C219.455 242.337 220.333 244.457 220.333 246.667V271.667H245.333C247.543 271.667 249.663 272.545 251.226 274.107C252.788 275.67 253.666 277.79 253.666 280C253.666 282.21 252.788 284.33 251.226 285.893C249.663 287.455 247.543 288.333 245.333 288.333H220.333V313.333Z" fill="#A2A2A2"/>
</svg>
