<svg width="390" height="390" viewBox="0 0 390 390" fill="none" xmlns="http://www.w3.org/2000/svg">
<path d="M215.63 174.967L162.088 135.845C154.593 130.366 144.634 130.366 137.245 135.845L83.7035 174.967C78.0281 179.131 74.7085 185.706 74.7085 192.829V280.167C74.7085 286.194 79.5272 291.125 85.4168 291.125H128.25V225.375H171.084V291.125H213.917C219.806 291.125 224.625 286.194 224.625 280.167V192.829C224.625 185.706 221.306 179.131 215.63 174.967V174.967Z" fill="#8F9399"/>
<path d="M289.196 93.875H192.178C180.506 93.875 171.083 103.518 171.083 115.463L172.047 116.449C172.903 116.997 173.76 117.435 174.617 117.983L228.158 157.105C236.297 163.022 242.079 171.789 244.649 181.542H267.458V203.458H246.041V225.375H267.458V247.292H246.041V291.125H289.196C300.868 291.125 310.291 281.482 310.291 269.537V115.463C310.291 103.518 300.868 93.875 289.196 93.875ZM267.458 159.625H246.041V137.708H267.458V159.625Z" fill="#8F9399"/>
</svg>
