<svg width="390" height="390" viewBox="0 0 390 390" fill="none" xmlns="http://www.w3.org/2000/svg">
<g clip-path="url(#clip0_52_5)">
<path d="M302.862 86.1948L257.362 75.2729C252.418 74.0897 247.343 76.7747 245.331 81.5985L224.331 132.567C222.493 137.027 223.718 142.26 227.35 145.309L253.862 167.881C238.112 202.786 210.593 231.82 176.337 248.521L154.637 220.943C151.662 217.166 146.675 215.892 142.387 217.803L93.3872 239.647C88.7059 241.786 86.1247 247.065 87.2622 252.207L97.7622 299.535C98.8559 304.45 103.056 308 108 308C220.043 308 311 213.571 311 96.8436C311 91.7467 307.631 87.3325 302.862 86.1948Z" fill="#8F9399"/>
</g>
<defs>
<clipPath id="clip0_52_5">
<rect width="224" height="233" fill="white" transform="translate(87 75)"/>
</clipPath>
</defs>
</svg>
