<svg width="250" height="250" viewBox="0 0 250 250" fill="none" xmlns="http://www.w3.org/2000/svg">
<path d="M104.125 193.75C104.125 196.84 103.209 199.861 101.492 202.431C99.7748 205 97.3345 207.003 94.4794 208.186C91.6243 209.368 88.4827 209.678 85.4517 209.075C82.4208 208.472 79.6367 206.984 77.4515 204.799C75.2663 202.613 73.7781 199.829 73.1752 196.798C72.5723 193.767 72.8818 190.626 74.0644 187.771C75.247 184.916 77.2497 182.475 79.8192 180.758C82.3887 179.041 85.4097 178.125 88.5 178.125C92.6377 178.146 96.6 179.798 99.5259 182.724C102.452 185.65 104.104 189.612 104.125 193.75V193.75ZM169.75 178.125C166.66 178.125 163.639 179.041 161.069 180.758C158.5 182.475 156.497 184.916 155.314 187.771C154.132 190.626 153.822 193.767 154.425 196.798C155.028 199.829 156.516 202.613 158.701 204.799C160.887 206.984 163.671 208.472 166.702 209.075C169.733 209.678 172.874 209.368 175.729 208.186C178.585 207.003 181.025 205 182.742 202.431C184.459 199.861 185.375 196.84 185.375 193.75C185.354 189.612 183.702 185.65 180.776 182.724C177.85 179.798 173.888 178.146 169.75 178.125V178.125ZM208.266 83.8281L189.359 149.766C188.042 154.326 185.282 158.336 181.493 161.195C177.704 164.055 173.09 165.609 168.344 165.625H89.9063C85.1596 165.609 80.546 164.055 76.7572 161.195C72.9683 158.336 70.2082 154.326 68.8906 149.766L50.0625 83.9844C50.0625 83.9063 49.9844 83.75 49.9844 83.6719L43.0312 59.375H35.375C32.8886 59.375 30.504 58.3873 28.7459 56.6291C26.9877 54.871 26 52.4864 26 50C26 47.5136 26.9877 45.129 28.7459 43.3709C30.504 41.6127 32.8886 40.625 35.375 40.625H45.375C48.7698 40.6507 52.0667 41.7651 54.7808 43.8043C57.495 45.8435 59.4833 48.6998 60.4531 51.9531L66.0781 71.875H199.203C200.653 71.8833 202.082 72.2251 203.379 72.8739C204.676 73.5228 205.806 74.4612 206.682 75.6168C207.558 76.7723 208.157 78.1139 208.431 79.5378C208.706 80.9617 208.649 82.4297 208.266 83.8281V83.8281ZM186.781 90.625H71.4688L86.8594 144.609C87.0593 145.263 87.4628 145.835 88.0109 146.242C88.5591 146.65 89.2232 146.872 89.9063 146.875H168.344C169.027 146.872 169.691 146.65 170.239 146.242C170.787 145.835 171.191 145.263 171.391 144.609L186.781 90.625Z" fill="white"/>
</svg>
