<svg width="390" height="390" viewBox="0 0 390 390" fill="none" xmlns="http://www.w3.org/2000/svg">
<path d="M271.312 75H104.812C93.3656 75 84 85.125 84 97.5V292.5C84 304.875 93.3656 315 104.812 315H271.312C282.759 315 292.125 304.875 292.125 292.5V97.5C292.125 85.125 282.759 75 271.312 75ZM264.375 285H111.75V105H264.375V285ZM139.5 210H236.625V225H139.5V210ZM139.5 240H236.625V255H139.5V240ZM153.375 142.5C153.376 139.544 153.915 136.618 154.962 133.887C156.01 131.157 157.544 128.676 159.478 126.587C161.412 124.498 163.707 122.841 166.234 121.71C168.76 120.58 171.467 119.999 174.201 120C176.935 120.001 179.643 120.584 182.168 121.716C184.694 122.848 186.988 124.507 188.921 126.598C190.854 128.688 192.386 131.17 193.432 133.901C194.477 136.632 195.015 139.559 195.014 142.515C195.012 148.484 192.817 154.208 188.911 158.428C185.005 162.648 179.709 165.017 174.188 165.015C168.666 165.013 163.371 162.64 159.468 158.417C155.565 154.195 153.373 148.469 153.375 142.5ZM188.062 165H160.312C148.866 165 139.5 171.75 139.5 180V195H208.875V180C208.875 171.75 199.509 165 188.062 165Z" fill="#8F9399"/>
</svg>
