<svg width="263" height="242" viewBox="0 0 263 242" fill="none" xmlns="http://www.w3.org/2000/svg">
<path fill-rule="evenodd" clip-rule="evenodd" d="M165.333 96C165.333 104.841 161.822 113.319 155.57 119.57C149.319 125.821 140.841 129.333 132 129.333C123.16 129.333 114.681 125.821 108.43 119.57C102.179 113.319 98.6667 104.841 98.6667 96C98.6667 87.1595 102.179 78.681 108.43 72.4298C114.681 66.1786 123.16 62.6667 132 62.6667C140.841 62.6667 149.319 66.1786 155.57 72.4298C161.822 78.681 165.333 87.1595 165.333 96V96ZM148.667 96C148.667 100.42 146.911 104.66 143.785 107.785C140.66 110.911 136.42 112.667 132 112.667C127.58 112.667 123.341 110.911 120.215 107.785C117.089 104.66 115.333 100.42 115.333 96C115.333 91.5797 117.089 87.3405 120.215 84.2149C123.341 81.0893 127.58 79.3334 132 79.3334C136.42 79.3334 140.66 81.0893 143.785 84.2149C146.911 87.3405 148.667 91.5797 148.667 96V96Z" fill="white"/>
<path fill-rule="evenodd" clip-rule="evenodd" d="M132 29.3333C81.3751 29.3333 40.3333 70.375 40.3333 121C40.3333 171.625 81.3751 212.667 132 212.667C182.625 212.667 223.667 171.625 223.667 121C223.667 70.375 182.625 29.3333 132 29.3333ZM57 121C57 138.417 62.9417 154.45 72.9 167.183C79.8936 157.999 88.9159 150.556 99.2621 145.436C109.608 140.316 120.998 137.657 132.542 137.667C143.936 137.656 155.183 140.246 165.425 145.24C175.667 150.234 184.633 157.499 191.642 166.483C198.863 157.013 203.724 145.96 205.825 134.238C207.925 122.516 207.204 110.463 203.721 99.0749C200.238 87.687 194.094 77.2921 185.796 68.7503C177.498 60.2086 167.286 53.7655 156.003 49.9542C144.721 46.143 132.694 45.0731 120.916 46.8331C109.138 48.5931 97.9484 53.1324 88.2732 60.0755C78.5979 67.0185 70.7151 76.1656 65.2769 86.76C59.8387 97.3544 57.0015 109.091 57 121V121ZM132 196C114.783 196.026 98.0857 190.103 84.7334 179.233C90.1078 171.539 97.2613 165.258 105.585 160.922C113.909 156.587 123.157 154.327 132.542 154.333C141.81 154.326 150.946 156.53 159.191 160.762C167.437 164.994 174.553 171.132 179.95 178.667C166.494 189.889 149.522 196.025 132 196V196Z" fill="white"/>
</svg>
