<svg width="381" height="179" viewBox="0 0 381 179" fill="none" xmlns="http://www.w3.org/2000/svg">
<g clip-path="url(#clip0_20_3)">
<path d="M73.8 122L60.66 98.15H56.97V122H41.58V58.82H67.41C72.39 58.82 76.62 59.69 80.1 61.43C83.64 63.17 86.28 65.57 88.02 68.63C89.76 71.63 90.63 74.99 90.63 78.71C90.63 82.91 89.43 86.66 87.03 89.96C84.69 93.26 81.21 95.6 76.59 96.98L91.17 122H73.8ZM56.97 87.26H66.51C69.33 87.26 71.43 86.57 72.81 85.19C74.25 83.81 74.97 81.86 74.97 79.34C74.97 76.94 74.25 75.05 72.81 73.67C71.43 72.29 69.33 71.6 66.51 71.6H56.97V87.26Z" fill="#7856FF"/>
<path d="M149.881 71.78V122H134.491V115.16C132.931 117.38 130.801 119.18 128.101 120.56C125.461 121.88 122.521 122.54 119.281 122.54C115.441 122.54 112.051 121.7 109.111 120.02C106.171 118.28 103.891 115.79 102.271 112.55C100.651 109.31 99.8409 105.5 99.8409 101.12V71.78H115.141V99.05C115.141 102.41 116.011 105.02 117.751 106.88C119.491 108.74 121.831 109.67 124.771 109.67C127.771 109.67 130.141 108.74 131.881 106.88C133.621 105.02 134.491 102.41 134.491 99.05V71.78H149.881Z" fill="#FFAC33"/>
<path d="M176.325 78.89C177.765 76.55 179.835 74.66 182.535 73.22C185.235 71.78 188.325 71.06 191.805 71.06C195.945 71.06 199.695 72.11 203.055 74.21C206.415 76.31 209.055 79.31 210.975 83.21C212.955 87.11 213.945 91.64 213.945 96.8C213.945 101.96 212.955 106.52 210.975 110.48C209.055 114.38 206.415 117.41 203.055 119.57C199.695 121.67 195.945 122.72 191.805 122.72C188.265 122.72 185.175 122.03 182.535 120.65C179.895 119.21 177.825 117.32 176.325 114.98V122H160.935V55.4H176.325V78.89ZM198.285 96.8C198.285 92.96 197.205 89.96 195.045 87.8C192.945 85.58 190.335 84.47 187.215 84.47C184.155 84.47 181.545 85.58 179.385 87.8C177.285 90.02 176.235 93.05 176.235 96.89C176.235 100.73 177.285 103.76 179.385 105.98C181.545 108.2 184.155 109.31 187.215 109.31C190.275 109.31 192.885 108.2 195.045 105.98C197.205 103.7 198.285 100.64 198.285 96.8Z" fill="#F91880"/>
<path d="M229.759 66.56C227.059 66.56 224.839 65.78 223.099 64.22C221.419 62.6 220.579 60.62 220.579 58.28C220.579 55.88 221.419 53.9 223.099 52.34C224.839 50.72 227.059 49.91 229.759 49.91C232.399 49.91 234.559 50.72 236.239 52.34C237.979 53.9 238.849 55.88 238.849 58.28C238.849 60.62 237.979 62.6 236.239 64.22C234.559 65.78 232.399 66.56 229.759 66.56ZM237.409 71.78V122H222.019V71.78H237.409Z" fill="#00BA7C"/>
<path d="M245.502 96.89C245.502 91.67 246.552 87.11 248.652 83.21C250.812 79.31 253.782 76.31 257.562 74.21C261.402 72.11 265.782 71.06 270.702 71.06C277.002 71.06 282.252 72.71 286.452 76.01C290.712 79.31 293.502 83.96 294.822 89.96H278.442C277.062 86.12 274.392 84.2 270.432 84.2C267.612 84.2 265.362 85.31 263.682 87.53C262.002 89.69 261.162 92.81 261.162 96.89C261.162 100.97 262.002 104.12 263.682 106.34C265.362 108.5 267.612 109.58 270.432 109.58C274.392 109.58 277.062 107.66 278.442 103.82H294.822C293.502 109.7 290.712 114.32 286.452 117.68C282.192 121.04 276.942 122.72 270.702 122.72C265.782 122.72 261.402 121.67 257.562 119.57C253.782 117.47 250.812 114.47 248.652 110.57C246.552 106.67 245.502 102.11 245.502 96.89Z" fill="#FFD400"/>
<path d="M323.485 122.72C319.105 122.72 315.205 121.97 311.785 120.47C308.365 118.97 305.665 116.93 303.685 114.35C301.705 111.71 300.595 108.77 300.355 105.53H315.565C315.745 107.27 316.555 108.68 317.995 109.76C319.435 110.84 321.205 111.38 323.305 111.38C325.225 111.38 326.695 111.02 327.715 110.3C328.795 109.52 329.335 108.53 329.335 107.33C329.335 105.89 328.585 104.84 327.085 104.18C325.585 103.46 323.155 102.68 319.795 101.84C316.195 101 313.195 100.13 310.795 99.23C308.395 98.27 306.325 96.8 304.585 94.82C302.845 92.78 301.975 90.05 301.975 86.63C301.975 83.75 302.755 81.14 304.315 78.8C305.935 76.4 308.275 74.51 311.335 73.13C314.455 71.75 318.145 71.06 322.405 71.06C328.705 71.06 333.655 72.62 337.255 75.74C340.915 78.86 343.015 83 343.555 88.16H329.335C329.095 86.42 328.315 85.04 326.995 84.02C325.735 83 324.055 82.49 321.955 82.49C320.155 82.49 318.775 82.85 317.815 83.57C316.855 84.23 316.375 85.16 316.375 86.36C316.375 87.8 317.125 88.88 318.625 89.6C320.185 90.32 322.585 91.04 325.825 91.76C329.545 92.72 332.575 93.68 334.915 94.64C337.255 95.54 339.295 97.04 341.035 99.14C342.835 101.18 343.765 103.94 343.825 107.42C343.825 110.36 342.985 113 341.305 115.34C339.685 117.62 337.315 119.42 334.195 120.74C331.135 122.06 327.565 122.72 323.485 122.72Z" fill="#1D9BF0"/>
</g>
<defs>
<clipPath id="clip0_20_3">
<rect width="381" height="179" fill="white"/>
</clipPath>
</defs>
</svg>
